<mxfile host="app.diagrams.net" agent="Mozilla/5.0 (Windows NT 10.0; Win64; x64) AppleWebKit/537.36 (KHTML, like Gecko) Chrome/130.0.0.0 Safari/537.36 Edg/130.0.0.0" version="24.8.3">
  <diagram id="mJ91No8LamG9-mdvQDle" name="Page-1">
    <mxGraphModel dx="1674" dy="873" grid="1" gridSize="10" guides="1" tooltips="1" connect="1" arrows="1" fold="1" page="1" pageScale="1" pageWidth="827" pageHeight="1169" math="0" shadow="0">
      <root>
        <mxCell id="0" />
        <mxCell id="1" parent="0" />
        <mxCell id="jr6eOjCog61Fg2cwBkOg-4" style="edgeStyle=orthogonalEdgeStyle;rounded=0;orthogonalLoop=1;jettySize=auto;html=1;exitX=0.5;exitY=1;exitDx=0;exitDy=0;" parent="1" source="jr6eOjCog61Fg2cwBkOg-3" target="jr6eOjCog61Fg2cwBkOg-5" edge="1">
          <mxGeometry relative="1" as="geometry">
            <mxPoint x="400" y="160" as="targetPoint" />
          </mxGeometry>
        </mxCell>
        <mxCell id="jr6eOjCog61Fg2cwBkOg-3" value="START" style="ellipse;whiteSpace=wrap;html=1;" parent="1" vertex="1">
          <mxGeometry x="340" y="80" width="120" height="40" as="geometry" />
        </mxCell>
        <mxCell id="jr6eOjCog61Fg2cwBkOg-6" style="edgeStyle=orthogonalEdgeStyle;rounded=0;orthogonalLoop=1;jettySize=auto;html=1;exitX=0.5;exitY=1;exitDx=0;exitDy=0;" parent="1" source="jr6eOjCog61Fg2cwBkOg-5" target="jr6eOjCog61Fg2cwBkOg-7" edge="1">
          <mxGeometry relative="1" as="geometry">
            <mxPoint x="400" y="240" as="targetPoint" />
          </mxGeometry>
        </mxCell>
        <mxCell id="jr6eOjCog61Fg2cwBkOg-5" value="y&lt;span style=&quot;background-color: initial;&quot;&gt;ear = int(input(&quot;Enter a year: &quot;))&lt;/span&gt;" style="shape=parallelogram;perimeter=parallelogramPerimeter;whiteSpace=wrap;html=1;fixedSize=1;" parent="1" vertex="1">
          <mxGeometry x="280" y="160" width="240" height="40" as="geometry" />
        </mxCell>
        <mxCell id="jr6eOjCog61Fg2cwBkOg-9" value="" style="edgeStyle=orthogonalEdgeStyle;rounded=0;orthogonalLoop=1;jettySize=auto;html=1;" parent="1" source="jr6eOjCog61Fg2cwBkOg-7" target="jr6eOjCog61Fg2cwBkOg-8" edge="1">
          <mxGeometry relative="1" as="geometry" />
        </mxCell>
        <mxCell id="jr6eOjCog61Fg2cwBkOg-11" value="" style="edgeStyle=orthogonalEdgeStyle;rounded=0;orthogonalLoop=1;jettySize=auto;html=1;" parent="1" source="jr6eOjCog61Fg2cwBkOg-7" target="jr6eOjCog61Fg2cwBkOg-10" edge="1">
          <mxGeometry relative="1" as="geometry" />
        </mxCell>
        <mxCell id="jr6eOjCog61Fg2cwBkOg-7" value="&lt;span style=&quot;text-wrap-mode: nowrap;&quot;&gt;if year % 4 == 0 and&amp;nbsp;&lt;/span&gt;&lt;div&gt;&lt;span style=&quot;text-wrap-mode: nowrap;&quot;&gt;(year % 100 != 0 or year % 400 == 0):&lt;/span&gt;&lt;/div&gt;" style="rhombus;whiteSpace=wrap;html=1;" parent="1" vertex="1">
          <mxGeometry x="280" y="240" width="240" height="200" as="geometry" />
        </mxCell>
        <mxCell id="jr6eOjCog61Fg2cwBkOg-18" style="edgeStyle=orthogonalEdgeStyle;rounded=0;orthogonalLoop=1;jettySize=auto;html=1;exitX=0.5;exitY=1;exitDx=0;exitDy=0;entryX=0;entryY=0.5;entryDx=0;entryDy=0;" parent="1" source="jr6eOjCog61Fg2cwBkOg-8" target="jr6eOjCog61Fg2cwBkOg-15" edge="1">
          <mxGeometry relative="1" as="geometry" />
        </mxCell>
        <mxCell id="jr6eOjCog61Fg2cwBkOg-8" value="&lt;span style=&quot;text-wrap-mode: nowrap;&quot;&gt;print(year, &quot;is a leap year.&quot;)&lt;/span&gt;" style="shape=parallelogram;perimeter=parallelogramPerimeter;whiteSpace=wrap;html=1;fixedSize=1;" parent="1" vertex="1">
          <mxGeometry x="40" y="520" width="170" height="40" as="geometry" />
        </mxCell>
        <mxCell id="jr6eOjCog61Fg2cwBkOg-13" value="" style="edgeStyle=orthogonalEdgeStyle;rounded=0;orthogonalLoop=1;jettySize=auto;html=1;" parent="1" source="jr6eOjCog61Fg2cwBkOg-10" target="jr6eOjCog61Fg2cwBkOg-12" edge="1">
          <mxGeometry relative="1" as="geometry" />
        </mxCell>
        <mxCell id="jr6eOjCog61Fg2cwBkOg-16" style="edgeStyle=orthogonalEdgeStyle;rounded=0;orthogonalLoop=1;jettySize=auto;html=1;exitX=1;exitY=0.5;exitDx=0;exitDy=0;entryX=1;entryY=0.5;entryDx=0;entryDy=0;" parent="1" source="jr6eOjCog61Fg2cwBkOg-10" target="jr6eOjCog61Fg2cwBkOg-15" edge="1">
          <mxGeometry relative="1" as="geometry">
            <Array as="points">
              <mxPoint x="800" y="540" />
              <mxPoint x="800" y="860" />
            </Array>
          </mxGeometry>
        </mxCell>
        <mxCell id="jr6eOjCog61Fg2cwBkOg-10" value="else:" style="rhombus;whiteSpace=wrap;html=1;" parent="1" vertex="1">
          <mxGeometry x="640" y="500" width="80" height="80" as="geometry" />
        </mxCell>
        <mxCell id="jr6eOjCog61Fg2cwBkOg-17" style="edgeStyle=orthogonalEdgeStyle;rounded=0;orthogonalLoop=1;jettySize=auto;html=1;exitX=0.5;exitY=1;exitDx=0;exitDy=0;entryX=1;entryY=0;entryDx=0;entryDy=0;" parent="1" source="jr6eOjCog61Fg2cwBkOg-12" target="jr6eOjCog61Fg2cwBkOg-15" edge="1">
          <mxGeometry relative="1" as="geometry">
            <Array as="points">
              <mxPoint x="485" y="780" />
              <mxPoint x="400" y="780" />
              <mxPoint x="400" y="846" />
            </Array>
          </mxGeometry>
        </mxCell>
        <mxCell id="jr6eOjCog61Fg2cwBkOg-12" value="&lt;span style=&quot;text-wrap-mode: nowrap;&quot;&gt;print(year, &quot;is not a leap year.&quot;)&lt;/span&gt;" style="shape=parallelogram;perimeter=parallelogramPerimeter;whiteSpace=wrap;html=1;fixedSize=1;" parent="1" vertex="1">
          <mxGeometry x="380" y="680" width="210" height="40" as="geometry" />
        </mxCell>
        <mxCell id="jr6eOjCog61Fg2cwBkOg-15" value="STOP" style="ellipse;whiteSpace=wrap;html=1;" parent="1" vertex="1">
          <mxGeometry x="340" y="840" width="120" height="40" as="geometry" />
        </mxCell>
        <mxCell id="fj6F5oe9f-7rgiTSbQDU-1" value="YES" style="text;html=1;align=center;verticalAlign=middle;resizable=0;points=[];autosize=1;strokeColor=none;fillColor=none;" vertex="1" parent="1">
          <mxGeometry x="125" y="310" width="50" height="30" as="geometry" />
        </mxCell>
        <mxCell id="fj6F5oe9f-7rgiTSbQDU-2" value="NO" style="text;html=1;align=center;verticalAlign=middle;resizable=0;points=[];autosize=1;strokeColor=none;fillColor=none;" vertex="1" parent="1">
          <mxGeometry x="640" y="310" width="40" height="30" as="geometry" />
        </mxCell>
        <mxCell id="fj6F5oe9f-7rgiTSbQDU-3" value="YES" style="text;html=1;align=center;verticalAlign=middle;resizable=0;points=[];autosize=1;strokeColor=none;fillColor=none;" vertex="1" parent="1">
          <mxGeometry x="475" y="508" width="50" height="30" as="geometry" />
        </mxCell>
        <mxCell id="fj6F5oe9f-7rgiTSbQDU-4" value="NO" style="text;html=1;align=center;verticalAlign=middle;resizable=0;points=[];autosize=1;strokeColor=none;fillColor=none;" vertex="1" parent="1">
          <mxGeometry x="760" y="508" width="40" height="30" as="geometry" />
        </mxCell>
      </root>
    </mxGraphModel>
  </diagram>
</mxfile>
